<?xml version="1.0" encoding="UTF-8" standalone="no"?>
<!-- Created with Inkscape (http://www.inkscape.org/) -->

<svg
   xmlns:dc="http://purl.org/dc/elements/1.1/"
   xmlns:cc="http://creativecommons.org/ns#"
   xmlns:rdf="http://www.w3.org/1999/02/22-rdf-syntax-ns#"
   xmlns:svg="http://www.w3.org/2000/svg"
   xmlns="http://www.w3.org/2000/svg"
   xmlns:xlink="http://www.w3.org/1999/xlink"
   xmlns:sodipodi="http://sodipodi.sourceforge.net/DTD/sodipodi-0.dtd"
   xmlns:inkscape="http://www.inkscape.org/namespaces/inkscape"
   width="640"
   height="640"
   id="svg3723"
   version="1.1"
   inkscape:version="0.48.5 r10040"
   sodipodi:docname="Barbecue Grill.svg">
  <title
     id="title4112">BBQ Grill</title>
  <defs
     id="defs3725">
    <filter
       color-interpolation-filters="sRGB"
       inkscape:collect="always"
       id="filter5925"
       x="-0.75789475"
       width="2.5157895"
       y="-1.1076922"
       height="3.2153845">
      <feGaussianBlur
         inkscape:collect="always"
         stdDeviation="6.1086389"
         id="feGaussianBlur5927" />
    </filter>
    <radialGradient
       inkscape:collect="always"
       xlink:href="#linearGradient6958"
       id="radialGradient6964"
       cx="231.87373"
       cy="360.49048"
       fx="231.87373"
       fy="360.49048"
       r="8.3903141"
       gradientTransform="matrix(1,0,0,0.93933006,12,43.870936)"
       gradientUnits="userSpaceOnUse" />
    <linearGradient
       id="linearGradient6958">
      <stop
         style="stop-color:#cd1515;stop-opacity:1;"
         offset="0"
         id="stop6960" />
      <stop
         style="stop-color:#1b1010;stop-opacity:1;"
         offset="1"
         id="stop6962" />
    </linearGradient>
    <radialGradient
       inkscape:collect="always"
       xlink:href="#linearGradient6958"
       id="radialGradient3747"
       cx="231.87373"
       cy="360.49048"
       fx="231.87373"
       fy="360.49048"
       r="8.3903141"
       gradientTransform="matrix(1,0,0,0.93933006,12,43.870936)"
       gradientUnits="userSpaceOnUse" />
    <linearGradient
       id="linearGradient3749">
      <stop
         style="stop-color:#cd1515;stop-opacity:1;"
         offset="0"
         id="stop3751" />
      <stop
         style="stop-color:#1b1010;stop-opacity:1;"
         offset="1"
         id="stop3753" />
    </linearGradient>
    <clipPath
       clipPathUnits="userSpaceOnUse"
       id="clipPath6054">
      <path
         style="color:#000000;fill:none;stroke:#000000;stroke-width:2;stroke-linecap:butt;stroke-linejoin:round;stroke-miterlimit:4;stroke-opacity:1;stroke-dashoffset:4.09999996;marker:none;visibility:visible;display:inline;overflow:visible;enable-background:accumulate"
         d="m 346.99661,366.74915 c -5.59958,15.64436 -39.00007,26.70025 -87.1091,26.70025 -48.10903,0 -84.56383,-12.074 -87.1091,-26.70025 0.93062,-24.19693 170.85126,-25.32898 174.2182,0 z"
         id="path6056"
         inkscape:connector-curvature="0"
         sodipodi:nodetypes="cscc" />
    </clipPath>
    <filter
       color-interpolation-filters="sRGB"
       inkscape:collect="always"
       id="filter7005"
       x="-0.033000026"
       width="1.0660001"
       y="-0.32999745"
       height="1.6599948">
      <feGaussianBlur
         inkscape:collect="always"
         stdDeviation="0.53490662"
         id="feGaussianBlur7007" />
    </filter>
    <linearGradient
       inkscape:collect="always"
       xlink:href="#linearGradient3879"
       id="linearGradient3633"
       gradientUnits="userSpaceOnUse"
       x1="210"
       y1="350"
       x2="194.44016"
       y2="260.28952" />
    <linearGradient
       id="linearGradient3879">
      <stop
         style="stop-color:#453a3a;stop-opacity:1;"
         offset="0"
         id="stop3881" />
      <stop
         style="stop-color:#999999;stop-opacity:0;"
         offset="1"
         id="stop3883" />
    </linearGradient>
    <linearGradient
       inkscape:collect="always"
       xlink:href="#linearGradient3879"
       id="linearGradient3611"
       gradientUnits="userSpaceOnUse"
       x1="210"
       y1="350"
       x2="210"
       y2="450" />
    <linearGradient
       id="linearGradient3772">
      <stop
         style="stop-color:#453a3a;stop-opacity:1;"
         offset="0"
         id="stop3774" />
      <stop
         style="stop-color:#999999;stop-opacity:0;"
         offset="1"
         id="stop3776" />
    </linearGradient>
    <linearGradient
       inkscape:collect="always"
       xlink:href="#linearGradient3879"
       id="linearGradient3613"
       gradientUnits="userSpaceOnUse"
       x1="210"
       y1="350"
       x2="210"
       y2="450" />
    <linearGradient
       id="linearGradient3779">
      <stop
         style="stop-color:#453a3a;stop-opacity:1;"
         offset="0"
         id="stop3781" />
      <stop
         style="stop-color:#999999;stop-opacity:0;"
         offset="1"
         id="stop3783" />
    </linearGradient>
    <linearGradient
       inkscape:collect="always"
       xlink:href="#linearGradient3879"
       id="linearGradient3785"
       gradientUnits="userSpaceOnUse"
       x1="210"
       y1="350"
       x2="194.44016"
       y2="260.28952" />
    <linearGradient
       id="linearGradient3787">
      <stop
         style="stop-color:#453a3a;stop-opacity:1;"
         offset="0"
         id="stop3789" />
      <stop
         style="stop-color:#999999;stop-opacity:0;"
         offset="1"
         id="stop3791" />
    </linearGradient>
    <linearGradient
       inkscape:collect="always"
       xlink:href="#linearGradient3879"
       id="linearGradient3793"
       gradientUnits="userSpaceOnUse"
       x1="210"
       y1="350"
       x2="194.44016"
       y2="260.28952" />
    <linearGradient
       id="linearGradient3795">
      <stop
         style="stop-color:#453a3a;stop-opacity:1;"
         offset="0"
         id="stop3797" />
      <stop
         style="stop-color:#999999;stop-opacity:0;"
         offset="1"
         id="stop3799" />
    </linearGradient>
    <radialGradient
       r="88.1091"
       fy="283.65454"
       fx="245.64377"
       cy="283.65454"
       cx="245.64377"
       gradientTransform="matrix(0.43381211,-8.3811864e-4,4.8775745e-4,0.25246004,-30.386846,273.59649)"
       gradientUnits="userSpaceOnUse"
       id="radialGradient3192"
       xlink:href="#linearGradient5577-4"
       inkscape:collect="always" />
    <linearGradient
       id="linearGradient5577-4">
      <stop
         style="stop-color:#ec5d69;stop-opacity:1;"
         offset="0"
         id="stop5579-0" />
      <stop
         style="stop-color:#ff0000;stop-opacity:1;"
         offset="1"
         id="stop5581-9" />
    </linearGradient>
    <radialGradient
       inkscape:collect="always"
       xlink:href="#linearGradient6958"
       id="radialGradient3113"
       gradientUnits="userSpaceOnUse"
       gradientTransform="matrix(1,0,0,0.93933006,12,43.870936)"
       cx="231.87373"
       cy="360.49048"
       fx="231.87373"
       fy="360.49048"
       r="8.3903141" />
    <linearGradient
       inkscape:collect="always"
       xlink:href="#linearGradient3879"
       id="linearGradient3115"
       gradientUnits="userSpaceOnUse"
       x1="210"
       y1="350"
       x2="194.44016"
       y2="260.28952" />
  </defs>
  <sodipodi:namedview
     id="base"
     pagecolor="#ffffff"
     bordercolor="#666666"
     borderopacity="1.0"
     inkscape:pageopacity="0.0"
     inkscape:pageshadow="2"
     inkscape:zoom="0.41766084"
     inkscape:cx="78.346664"
     inkscape:cy="169.92265"
     inkscape:current-layer="layer1"
     inkscape:document-units="px"
     showgrid="false"
     fit-margin-top="20"
     fit-margin-left="20"
     fit-margin-right="20"
     fit-margin-bottom="20"
     inkscape:window-width="1366"
     inkscape:window-height="705"
     inkscape:window-x="-8"
     inkscape:window-y="-8"
     inkscape:window-maximized="1" />
  <metadata
     id="metadata3728">
    <rdf:RDF>
      <cc:Work
         rdf:about="">
        <dc:format>image/svg+xml</dc:format>
        <dc:type
           rdf:resource="http://purl.org/dc/dcmitype/StillImage" />
        <dc:title>BBQ Grill</dc:title>
        <dc:subject>
          <rdf:Bag>
            <rdf:li>SMIL</rdf:li>
            <rdf:li>Animation</rdf:li>
            <rdf:li>Animate</rdf:li>
            <rdf:li>barbecue</rdf:li>
            <rdf:li>bar-b-que</rdf:li>
            <rdf:li>BBQ</rdf:li>
            <rdf:li>Grill</rdf:li>
            <rdf:li>Steak</rdf:li>
            <rdf:li>Celebration</rdf:li>
            <rdf:li>holidays</rdf:li>
          </rdf:Bag>
        </dc:subject>
        <dc:description>Steak and hot dogs smoking on a red BBQ grill.</dc:description>
        <dc:creator>
          <cc:Agent>
            <dc:title>Aukipa</dc:title>
          </cc:Agent>
        </dc:creator>
        <dc:publisher>
          <cc:Agent>
            <dc:title>www.portaloha.com/creative-dept</dc:title>
          </cc:Agent>
        </dc:publisher>
      </cc:Work>
    </rdf:RDF>
  </metadata>
  <g
     id="layer1"
     inkscape:label="Layer 1"
     inkscape:groupmode="layer">
    <g
       transform="matrix(1.5,0,0,1.5,-120,-260)"
       style="display:inline"
       id="Grill">
      <path
         sodipodi:nodetypes="ccccccc"
         inkscape:connector-curvature="0"
         id="path3843"
         d="m 188.38591,472.22764 154.7522,-0.50906 1.08122,4.43948 -79.62029,34.18511 -8.90946,0 -68.26968,-35.40087 z"
         style="color:#000000;fill:#000000;fill-opacity:1;fill-rule:nonzero;stroke:#000000;stroke-width:1;stroke-linecap:butt;stroke-linejoin:round;stroke-miterlimit:4;stroke-opacity:1;stroke-dasharray:none;stroke-dashoffset:4.09999996;marker:none;visibility:visible;display:inline;overflow:visible;enable-background:accumulate" />
      <use
         inkscape:transform-center-y="58.131646"
         inkscape:transform-center-x="-16.45159"
         height="600"
         width="1200"
         transform="matrix(-0.99562382,0.09345166,0.09345166,0.99562382,487.374,-17.590208)"
         id="use3823"
         xlink:href="#rect3791"
         y="0"
         x="0" />
      <path
         inkscape:transform-center-y="-48.972377"
         inkscape:transform-center-x="-19.030784"
         inkscape:connector-curvature="0"
         id="rect3791"
         d="m 192.55889,399.91637 8.11344,2.8494 -11.54002,112.51147 -8.47338,0.0302 z"
         style="color:#000000;fill:#cccccc;fill-opacity:1;fill-rule:nonzero;stroke:#000000;stroke-width:0.5;stroke-linecap:butt;stroke-linejoin:round;stroke-miterlimit:4;stroke-opacity:1;stroke-dasharray:none;stroke-dashoffset:4.09999996;marker:none;visibility:visible;display:inline;overflow:visible;enable-background:accumulate"
         sodipodi:nodetypes="ccccc" />
      <path
         sodipodi:nodetypes="cscc"
         inkscape:connector-curvature="0"
         id="path3758"
         d="m 348.097,366.74915 c 0,34.98838 -40.10046,63.35208 -88.20949,63.35208 -48.10903,0 -88.90951,-28.3637 -88.90951,-63.35208 -4.52252,-26.50787 180.87271,-29.96911 177.119,0 z"
         style="color:#000000;fill:#ff0000;fill-opacity:1;fill-rule:nonzero;stroke:#000000;stroke-width:1;stroke-linecap:butt;stroke-linejoin:round;stroke-miterlimit:4;stroke-opacity:1;stroke-dashoffset:4.09999996;marker:none;visibility:visible;display:inline;overflow:visible;enable-background:accumulate" />
      <path
         sodipodi:nodetypes="cccsc"
         inkscape:connector-curvature="0"
         id="path3758-8"
         d="m 348.097,366.74915 c 0,34.98838 -40.10046,63.35208 -88.20949,63.35208 123.68816,-35.74451 -12.72719,-84.03695 20.6254,-84.20367 8.98052,0.37143 17.65601,1.04322 25.6281,2.02627 25.05013,3.08896 43.15517,9.25122 41.95599,18.82532 z"
         style="color:#000000;fill:#d40000;fill-opacity:1;fill-rule:nonzero;stroke:none;stroke-width:2;marker:none;visibility:visible;display:inline;overflow:visible;enable-background:accumulate" />
      <path
         transform="matrix(0.99320202,0.1164034,-0.1164034,0.99320202,54.051321,-14.982062)"
         d="m 269.79822,397.90585 c 0,3.65485 -6.60942,6.6177 -14.76254,6.6177 -8.15313,0 -14.76255,-2.96285 -14.76255,-6.6177 0,-3.65485 6.60942,-6.61769 14.76255,-6.61769 8.15312,0 14.76254,2.96284 14.76254,6.61769 z"
         sodipodi:ry="6.6176925"
         sodipodi:rx="14.762544"
         sodipodi:cy="397.90585"
         sodipodi:cx="255.03568"
         id="path5611"
         style="opacity:0.5;color:#000000;fill:#cccccc;fill-opacity:1;fill-rule:nonzero;stroke:#000000;stroke-width:1;stroke-linecap:butt;stroke-linejoin:round;stroke-miterlimit:4;stroke-opacity:1;stroke-dasharray:none;stroke-dashoffset:4.09999996;marker:none;visibility:visible;display:inline;overflow:visible;filter:url(#filter5925);enable-background:accumulate"
         sodipodi:type="arc" />
      <path
         sodipodi:nodetypes="cscc"
         inkscape:connector-curvature="0"
         id="InsideGrill"
         d="m 346.99661,366.74915 c -5.59958,15.64436 -39.00007,26.70025 -87.1091,26.70025 -48.10903,0 -84.56383,-12.074 -87.1091,-26.70025 0.93062,-24.19693 170.85126,-25.32898 174.2182,0 z"
         style="color:#000000;fill:#000000;fill-opacity:1;fill-rule:nonzero;stroke:#000000;stroke-width:1;stroke-linecap:butt;stroke-linejoin:round;stroke-miterlimit:4;stroke-opacity:1;stroke-dashoffset:4.09999996;marker:none;visibility:visible;display:inline;overflow:visible;enable-background:accumulate"
         sodipodi:insensitive="true" />
      <rect
         style="color:#000000;fill:url(#radialGradient3113);fill-opacity:1;fill-rule:nonzero;stroke:none;stroke-width:1;marker:none;visibility:visible;display:inline;overflow:visible;enable-background:accumulate"
         id="rect6956"
         width="15.780628"
         height="14.762548"
         x="235.98343"
         y="375.10919"
         rx="2"
         ry="2" />
      <use
         x="0"
         y="0"
         xlink:href="#rect6956"
         id="use6966"
         transform="matrix(0.75581249,0.65478812,-0.65478812,0.75581249,318.2801,-65.92628)"
         width="1200"
         height="600" />
      <g
         id="Grate"
         clip-path="url(#clipPath6054)">
        <path
           style="color:#000000;fill:#b3b3b3;fill-opacity:1;fill-rule:nonzero;stroke:#302d2d;stroke-width:0.5;stroke-linecap:butt;stroke-linejoin:round;stroke-miterlimit:4;stroke-opacity:1;stroke-dasharray:none;stroke-dashoffset:4.09999996;marker:none;visibility:visible;display:inline;overflow:visible;enable-background:accumulate"
           d="m 244.13035,344.52769 -0.29281,51.26748 3.59057,0.58352 -0.21622,-51.851 z"
           id="GrateMaster"
           inkscape:connector-curvature="0"
           sodipodi:nodetypes="ccccc" />
        <path
           sodipodi:nodetypes="ccccc"
           inkscape:connector-curvature="0"
           id="path6006"
           d="m 256.13035,344.52769 -0.29281,51.26748 3.59057,0.58352 -0.21622,-51.851 z"
           style="color:#000000;fill:#b3b3b3;fill-opacity:1;fill-rule:nonzero;stroke:#302d2d;stroke-width:0.5;stroke-linecap:butt;stroke-linejoin:round;stroke-miterlimit:4;stroke-opacity:1;stroke-dasharray:none;stroke-dashoffset:4.09999996;marker:none;visibility:visible;display:inline;overflow:visible;enable-background:accumulate" />
        <path
           style="color:#000000;fill:#b3b3b3;fill-opacity:1;fill-rule:nonzero;stroke:#302d2d;stroke-width:0.5;stroke-linecap:butt;stroke-linejoin:round;stroke-miterlimit:4;stroke-opacity:1;stroke-dasharray:none;stroke-dashoffset:4.09999996;marker:none;visibility:visible;display:inline;overflow:visible;enable-background:accumulate"
           d="m 268.13035,344.52769 -0.29281,51.26748 3.59057,0.58352 -0.21622,-51.851 z"
           id="path6008"
           inkscape:connector-curvature="0"
           sodipodi:nodetypes="ccccc" />
        <path
           sodipodi:nodetypes="ccccc"
           inkscape:connector-curvature="0"
           id="path6014"
           d="m 280.13035,344.52769 -0.29281,51.26748 3.59057,0.58352 -0.21622,-51.851 z"
           style="color:#000000;fill:#b3b3b3;fill-opacity:1;fill-rule:nonzero;stroke:#302d2d;stroke-width:0.5;stroke-linecap:butt;stroke-linejoin:round;stroke-miterlimit:4;stroke-opacity:1;stroke-dasharray:none;stroke-dashoffset:4.09999996;marker:none;visibility:visible;display:inline;overflow:visible;enable-background:accumulate" />
        <path
           style="color:#000000;fill:#b3b3b3;fill-opacity:1;fill-rule:nonzero;stroke:#302d2d;stroke-width:0.5;stroke-linecap:butt;stroke-linejoin:round;stroke-miterlimit:4;stroke-opacity:1;stroke-dasharray:none;stroke-dashoffset:4.09999996;marker:none;visibility:visible;display:inline;overflow:visible;enable-background:accumulate"
           d="m 290.13035,344.52769 -0.29281,51.26748 3.59057,0.58352 -0.21622,-51.851 z"
           id="path6016"
           inkscape:connector-curvature="0"
           sodipodi:nodetypes="ccccc" />
        <path
           sodipodi:nodetypes="ccccc"
           inkscape:connector-curvature="0"
           id="path6018"
           d="m 302.13035,344.52769 -0.29281,51.26748 3.59057,0.58352 -0.21622,-51.851 z"
           style="color:#000000;fill:#b3b3b3;fill-opacity:1;fill-rule:nonzero;stroke:#302d2d;stroke-width:0.5;stroke-linecap:butt;stroke-linejoin:round;stroke-miterlimit:4;stroke-opacity:1;stroke-dasharray:none;stroke-dashoffset:4.09999996;marker:none;visibility:visible;display:inline;overflow:visible;enable-background:accumulate" />
        <path
           style="color:#000000;fill:#b3b3b3;fill-opacity:1;fill-rule:nonzero;stroke:#302d2d;stroke-width:0.5;stroke-linecap:butt;stroke-linejoin:round;stroke-miterlimit:4;stroke-opacity:1;stroke-dasharray:none;stroke-dashoffset:4.09999996;marker:none;visibility:visible;display:inline;overflow:visible;enable-background:accumulate"
           d="m 314.13035,347.58201 -0.29281,44.72426 3.59057,0.50905 -0.21622,-45.23331 z"
           id="path6020"
           inkscape:connector-curvature="0"
           sodipodi:nodetypes="ccccc" />
        <path
           sodipodi:nodetypes="ccccc"
           inkscape:connector-curvature="0"
           id="path6022"
           d="m 324.13035,347.58201 -0.29281,44.72426 3.59057,0.50905 -0.21622,-45.23331 z"
           style="color:#000000;fill:#b3b3b3;fill-opacity:1;fill-rule:nonzero;stroke:#302d2d;stroke-width:0.5;stroke-linecap:butt;stroke-linejoin:round;stroke-miterlimit:4;stroke-opacity:1;stroke-dasharray:none;stroke-dashoffset:4.09999996;marker:none;visibility:visible;display:inline;overflow:visible;enable-background:accumulate" />
        <path
           style="color:#000000;fill:#b3b3b3;fill-opacity:1;fill-rule:nonzero;stroke:#302d2d;stroke-width:0.5;stroke-linecap:butt;stroke-linejoin:round;stroke-miterlimit:4;stroke-opacity:1;stroke-dasharray:none;stroke-dashoffset:4.09999996;marker:none;visibility:visible;display:inline;overflow:visible;enable-background:accumulate"
           d="m 336.13035,347.58201 -0.29281,44.72426 3.59057,0.50905 -0.21622,-45.23331 z"
           id="path6024"
           inkscape:connector-curvature="0"
           sodipodi:nodetypes="ccccc" />
        <path
           sodipodi:nodetypes="ccccc"
           inkscape:connector-curvature="0"
           id="path6026"
           d="m 232.13035,344.52769 -0.29281,51.26748 3.59057,0.58352 -0.21622,-51.851 z"
           style="color:#000000;fill:#b3b3b3;fill-opacity:1;fill-rule:nonzero;stroke:#302d2d;stroke-width:0.5;stroke-linecap:butt;stroke-linejoin:round;stroke-miterlimit:4;stroke-opacity:1;stroke-dasharray:none;stroke-dashoffset:4.09999996;marker:none;visibility:visible;display:inline;overflow:visible;enable-background:accumulate" />
        <path
           style="color:#000000;fill:#b3b3b3;fill-opacity:1;fill-rule:nonzero;stroke:#302d2d;stroke-width:0.5;stroke-linecap:butt;stroke-linejoin:round;stroke-miterlimit:4;stroke-opacity:1;stroke-dasharray:none;stroke-dashoffset:4.09999996;marker:none;visibility:visible;display:inline;overflow:visible;enable-background:accumulate"
           d="m 220.13035,347.58201 -0.29281,44.72426 3.59057,0.50905 -0.21622,-45.23331 z"
           id="path6028"
           inkscape:connector-curvature="0"
           sodipodi:nodetypes="ccccc" />
        <path
           sodipodi:nodetypes="ccccc"
           inkscape:connector-curvature="0"
           id="path6030"
           d="m 208.13035,347.58201 -0.29281,44.72426 3.59057,0.50905 -0.21622,-45.23331 z"
           style="color:#000000;fill:#b3b3b3;fill-opacity:1;fill-rule:nonzero;stroke:#302d2d;stroke-width:0.5;stroke-linecap:butt;stroke-linejoin:round;stroke-miterlimit:4;stroke-opacity:1;stroke-dasharray:none;stroke-dashoffset:4.09999996;marker:none;visibility:visible;display:inline;overflow:visible;enable-background:accumulate" />
        <path
           style="color:#000000;fill:#b3b3b3;fill-opacity:1;fill-rule:nonzero;stroke:#302d2d;stroke-width:0.5;stroke-linecap:butt;stroke-linejoin:round;stroke-miterlimit:4;stroke-opacity:1;stroke-dasharray:none;stroke-dashoffset:4.09999996;marker:none;visibility:visible;display:inline;overflow:visible;enable-background:accumulate"
           d="m 196.13035,347.58201 -0.29281,44.72426 3.59057,0.50905 -0.21622,-45.23331 z"
           id="path6032"
           inkscape:connector-curvature="0"
           sodipodi:nodetypes="ccccc" />
        <path
           sodipodi:nodetypes="ccccc"
           inkscape:connector-curvature="0"
           id="path6034"
           d="m 184.13035,347.58201 -0.29281,44.72426 3.59057,0.50905 -0.21622,-45.23331 z"
           style="color:#000000;fill:#b3b3b3;fill-opacity:1;fill-rule:nonzero;stroke:#302d2d;stroke-width:0.5;stroke-linecap:butt;stroke-linejoin:round;stroke-miterlimit:4;stroke-opacity:1;stroke-dasharray:none;stroke-dashoffset:4.09999996;marker:none;visibility:visible;display:inline;overflow:visible;enable-background:accumulate" />
      </g>
      <g
         id="HotDog">
        <path
           id="rect6968"
           d="m 274.14624,379.52756 33.5748,0 c 2.216,0 4,1.6054 4,3.59955 0,1.99415 -1.784,3.59955 -4,3.59955 l -33.5748,0 c -2.216,0 -4,-1.6054 -4,-3.59955 0,-1.99415 1.784,-3.59955 4,-3.59955 z"
           style="color:#000000;fill:#ff7f2a;fill-opacity:1;fill-rule:nonzero;stroke:none;stroke-width:1;marker:none;visibility:visible;display:inline;overflow:visible;enable-background:accumulate"
           inkscape:connector-curvature="0" />
        <path
           sodipodi:nodetypes="sssssss"
           id="rect6968-4"
           d="m 276.48817,379.82787 30.79989,0 c 2.03285,0 3.6694,0.86753 3.6694,1.94513 0,1.0776 -1.63661,1.94513 -3.6694,1.94513 l -30.79989,0 c -2.03285,0 -3.6694,-0.86753 -3.6694,-1.94513 0,-1.0776 1.63655,-1.94513 3.6694,-1.94513 z"
           style="opacity:0.9;color:#000000;fill:#803300;fill-opacity:1;fill-rule:nonzero;stroke:none;stroke-width:1;marker:none;visibility:visible;display:inline;overflow:visible;filter:url(#filter7005);enable-background:accumulate"
           inkscape:connector-curvature="0" />
        <path
           id="rect7009"
           d="m 277.11587,379.70721 0.38179,0 c 0.31726,0 0.57268,1.33385 0.57268,2.99069 l 0,0.38179 c 0,1.65684 -0.25542,2.99069 -0.57268,2.99069 l -0.38179,0 c -0.31727,0 -0.57269,-1.33385 -0.57269,-2.99069 l 0,-0.38179 c 0,-1.65684 0.25542,-2.99069 0.57269,-2.99069 z"
           style="opacity:0.9;color:#000000;fill:#1a1a1a;fill-opacity:1;fill-rule:nonzero;stroke:none;stroke-width:1;marker:none;visibility:visible;display:inline;overflow:visible;enable-background:accumulate"
           inkscape:connector-curvature="0" />
        <path
           inkscape:connector-curvature="0"
           style="opacity:0.9;color:#000000;fill:#1a1a1a;fill-opacity:1;fill-rule:nonzero;stroke:none;stroke-width:1;marker:none;visibility:visible;display:inline;overflow:visible;enable-background:accumulate"
           d="m 285.11587,379.70721 0.38179,0 c 0.31726,0 0.57268,1.33385 0.57268,2.99069 l 0,0.38179 c 0,1.65684 -0.25542,2.99069 -0.57268,2.99069 l -0.38179,0 c -0.31727,0 -0.57269,-1.33385 -0.57269,-2.99069 l 0,-0.38179 c 0,-1.65684 0.25542,-2.99069 0.57269,-2.99069 z"
           id="path7012" />
        <path
           id="path7014"
           d="m 293.11587,379.70721 0.38179,0 c 0.31726,0 0.57268,1.33385 0.57268,2.99069 l 0,0.38179 c 0,1.65684 -0.25542,2.99069 -0.57268,2.99069 l -0.38179,0 c -0.31727,0 -0.57269,-1.33385 -0.57269,-2.99069 l 0,-0.38179 c 0,-1.65684 0.25542,-2.99069 0.57269,-2.99069 z"
           style="opacity:0.9;color:#000000;fill:#1a1a1a;fill-opacity:1;fill-rule:nonzero;stroke:none;stroke-width:1;marker:none;visibility:visible;display:inline;overflow:visible;enable-background:accumulate"
           inkscape:connector-curvature="0" />
        <path
           inkscape:connector-curvature="0"
           style="opacity:0.9;color:#000000;fill:#1a1a1a;fill-opacity:1;fill-rule:nonzero;stroke:none;stroke-width:1;marker:none;visibility:visible;display:inline;overflow:visible;enable-background:accumulate"
           d="m 301.11587,379.70721 0.38179,0 c 0.31726,0 0.57268,1.33385 0.57268,2.99069 l 0,0.38179 c 0,1.65684 -0.25542,2.99069 -0.57268,2.99069 l -0.38179,0 c -0.31727,0 -0.57269,-1.33385 -0.57269,-2.99069 l 0,-0.38179 c 0,-1.65684 0.25542,-2.99069 0.57269,-2.99069 z"
           id="path7016" />
      </g>
      <use
         x="0"
         y="0"
         xlink:href="#HotDog"
         id="use7026"
         transform="translate(0,-10)"
         width="1200"
         height="600" />
      <use
         x="0"
         y="0"
         xlink:href="#HotDog"
         id="use7028"
         transform="translate(0,-24)"
         width="1200"
         height="600" />
      <rect
         style="color:#000000;fill:#cccccc;fill-opacity:1;fill-rule:nonzero;stroke:#15110b;stroke-width:0.5;stroke-miterlimit:4;stroke-opacity:1;stroke-dasharray:none;marker:none;visibility:visible;display:inline;overflow:visible;enable-background:accumulate"
         id="rect7379"
         width="9.1629581"
         height="131.84479"
         x="256.05377"
         y="433.03055"
         rx="0.28634247"
         ry="1.4953439" />
      <path
         style="color:#000000;fill:#1a1a1a;fill-opacity:1;fill-rule:nonzero;stroke:#000000;stroke-width:1;stroke-linecap:butt;stroke-linejoin:round;stroke-miterlimit:4;stroke-opacity:1;stroke-dashoffset:4.09999996;marker:none;visibility:visible;display:inline;overflow:visible;enable-background:accumulate"
         d="m 247.28488,425.3911 c 2.69499,5.08121 3.5451,11.29663 12.68926,11.19774 9.26618,-0.10021 11.44435,-3.91794 12.59568,-11.384 -8.07955,0.7259 -13.05005,1.51399 -25.28494,0.18626 z"
         id="path3760-1"
         inkscape:connector-curvature="0"
         sodipodi:nodetypes="cscc"
         inkscape:transform-center-x="2.15973"
         inkscape:transform-center-y="-6.7223375" />
      <g
         id="TBone Steak">
        <path
           inkscape:connector-curvature="0"
           id="path6101"
           d="m 233.68174,354.75976 c 3.36126,4.14023 4.01147,16.45119 0.4215,19.60651 -5.0523,3.57301 -12.45762,3.95034 -15.71703,3.6755 -2.18647,-0.18437 -5.24465,-2.00457 -8.00473,-2.3195 -5.21701,-0.59527 -9.46253,-0.25717 -14.15623,0.23456 -9.07738,0.95098 -10.9241,0.0164 -10.9241,0.0164 -3.39058,-4.5526 -2.72771,-5.50964 -2.50282,-8.1693"
           style="color:#000000;fill:#d38d5f;fill-opacity:1;fill-rule:nonzero;stroke:#302d2d;stroke-width:0.5;stroke-linecap:butt;stroke-linejoin:round;stroke-miterlimit:4;stroke-opacity:1;stroke-dasharray:none;stroke-dashoffset:4.09999996;marker:none;visibility:visible;display:inline;overflow:visible;enable-background:accumulate"
           sodipodi:nodetypes="ccssscc" />
        <path
           inkscape:connector-curvature="0"
           id="path6099"
           d="m 231.20219,350.48355 c 1.68044,1.56117 3.29697,6.03986 3.29697,6.03986 2.33663,6.98475 0.80786,13.06116 -2.26232,14.25215 -7.79621,2.46769 -10.83639,2.58304 -18.71071,1.87809 0,0 -11.40877,-1.48279 -17.14709,-1.53509 -3.07028,-0.028 -7.19771,0.5422 -9.18798,0.65398 -2.26301,0.1271 -6.05623,-1.91776 -4.51747,-3.9186 l 3.87644,-5.04051 c 7.74559,-6.44684 11.00259,-5.88436 19.90835,-7.57017 6.39322,-1.59893 13.43145,-4.91706 19.21448,-5.70555 0,0 4.08654,-0.39455 5.52933,0.94584 z"
           style="color:#000000;fill:#a05a2c;fill-opacity:1;fill-rule:nonzero;stroke:#302d2d;stroke-width:0.5;stroke-linecap:butt;stroke-linejoin:round;stroke-miterlimit:4;stroke-opacity:1;stroke-dasharray:none;stroke-dashoffset:4.09999996;marker:none;visibility:visible;display:inline;overflow:visible;enable-background:accumulate"
           sodipodi:nodetypes="sccssssccss" />
        <path
           sodipodi:nodetypes="ccccccccc"
           id="path6068"
           style="font-size:37.18592072px;font-style:normal;font-variant:normal;font-weight:normal;font-stretch:normal;line-height:125%;letter-spacing:0px;word-spacing:0px;fill:#f4e3d7;fill-opacity:1;stroke:none;display:inline;font-family:Eras Demi ITC;-inkscape-font-specification:Eras Demi ITC"
           d="m 193.56837,362.36643 c 9.65299,0.32855 14.58309,0.95225 30.80015,-0.50609 1.07933,-2.78066 -0.36592,-4.83524 0.46429,-7.43214 1.41361,-0.41861 2.45813,-2.22787 3.44461,-1.5345 0.36026,7.53799 1.92881,11.37625 -2.1686,17.41885 -2.26127,-0.46672 -3.365,0.42051 -4.36983,-0.27446 1.08486,-2.24986 1.57132,-3.18464 1.82449,-5.06492 -13.30608,1.84693 -19.9326,1.1603 -32.88893,2.48507 -0.58714,-2.41688 2.62912,-2.65509 2.89382,-5.09181 z"
           inkscape:connector-curvature="0" />
        <path
           id="rect7009-1"
           d="m 212.37287,354.39092 c 4.00064,3.26193 14.91197,14.7222 16.60668,16.30792 0.0422,0.55962 -1.07483,1.15263 -1.53366,0.28632 -0.16787,-0.31694 -14.63078,-14.32331 -16.52908,-15.98807 0.3185,-1.0763 0.63554,-0.7876 1.45606,-0.60617 z"
           style="opacity:0.8;color:#000000;fill:#1a1a1a;fill-opacity:1;fill-rule:nonzero;stroke:none;stroke-width:1;marker:none;visibility:visible;display:inline;overflow:visible;enable-background:accumulate"
           inkscape:connector-curvature="0"
           sodipodi:nodetypes="ccscc" />
        <path
           id="rect7009-7"
           d="m 277.11587,379.70721 0.38179,0 c 0.31726,0 0.57268,1.33385 0.57268,2.99069 l 0,0.38179 c 0,1.65684 -0.25542,2.99069 -0.57268,2.99069 l -0.38179,0 c -0.31727,0 -0.57269,-1.33385 -0.57269,-2.99069 l 0,-0.38179 c 0,-1.65684 0.25542,-2.99069 0.57269,-2.99069 z"
           style="opacity:0.9;color:#000000;fill:#1a1a1a;fill-opacity:1;fill-rule:nonzero;stroke:none;stroke-width:1;marker:none;visibility:visible;display:inline;overflow:visible;enable-background:accumulate"
           inkscape:connector-curvature="0" />
        <path
           id="rect7009-1-4"
           d="m 203.91968,356.41071 c 4.00064,3.26193 14.91197,14.72221 16.60668,16.30793 0.0422,0.55962 -1.07483,1.15263 -1.53366,0.28632 -0.16787,-0.31694 -14.63078,-14.32332 -16.52908,-15.98808 0.3185,-1.0763 0.63554,-0.7876 1.45606,-0.60617 z"
           style="opacity:0.8;color:#000000;fill:#1a1a1a;fill-opacity:1;fill-rule:nonzero;stroke:none;stroke-width:1;marker:none;visibility:visible;display:inline;overflow:visible;enable-background:accumulate"
           inkscape:connector-curvature="0"
           sodipodi:nodetypes="ccscc" />
        <path
           id="rect7009-1-0"
           d="m 219.62915,351.02461 c 4.00064,3.26193 14.08909,13.97414 15.7838,15.55986 0.0422,0.55962 -0.25195,1.9007 -0.71078,1.03439 -0.16787,-0.31694 -14.63078,-14.32332 -16.52908,-15.98808 0.3185,-1.0763 0.85996,-0.26395 1.45606,-0.60617 z"
           style="opacity:0.8;color:#000000;fill:#1a1a1a;fill-opacity:1;fill-rule:nonzero;stroke:none;stroke-width:1;marker:none;visibility:visible;display:inline;overflow:visible;enable-background:accumulate"
           inkscape:connector-curvature="0"
           sodipodi:nodetypes="ccscc" />
        <path
           id="rect7009-1-9"
           d="m 194.19478,358.5053 c 4.00064,3.26193 11.09681,11.3559 12.79152,12.94162 0.0422,0.55962 -1.07483,1.15263 -1.53366,0.28632 -0.16787,-0.31694 -10.81562,-10.95701 -12.71392,-12.62177 0.3185,-1.0763 0.63554,-0.7876 1.45606,-0.60617 z"
           style="opacity:0.8;color:#000000;fill:#1a1a1a;fill-opacity:1;fill-rule:nonzero;stroke:none;stroke-width:1;marker:none;visibility:visible;display:inline;overflow:visible;enable-background:accumulate"
           inkscape:connector-curvature="0"
           sodipodi:nodetypes="ccscc" />
        <path
           id="rect7009-1-9-4"
           d="m 187.76138,362.7693 c 4.00064,3.26193 5.56109,6.41865 7.2558,8.00437 0.0422,0.55962 -1.07483,1.15263 -1.53366,0.28632 -0.16787,-0.31694 -5.2799,-6.01976 -7.1782,-7.68452 0.3185,-1.0763 0.63554,-0.7876 1.45606,-0.60617 z"
           style="opacity:0.8;color:#000000;fill:#1a1a1a;fill-opacity:1;fill-rule:nonzero;stroke:none;stroke-width:1;marker:none;visibility:visible;display:inline;overflow:visible;enable-background:accumulate"
           inkscape:connector-curvature="0"
           sodipodi:nodetypes="ccscc" />
      </g>
      <g
         id="Smoke"
         transform="translate(20.099712,0)">
        <path
           style="opacity:0.7;color:#000000;fill:url(#linearGradient3115);stroke:none;stroke-width:2;marker:none;visibility:visible;display:inline;overflow:visible;enable-background:accumulate"
           d="m 214.21561,283.00379 c -3.95082,8.75296 -5.87511,15.32733 -5.29178,24.03513 2.20515,8.39141 8.45425,8.45055 12.48457,15.6315 3.01141,5.00475 5.09904,9.48731 5.63635,18.40733 -0.19054,4.86983 -1.80291,11.37577 -3.84796,17.17045 -1.15023,3.95682 -7.74128,13.34467 -11.97343,14.79413 2.61907,3.98158 23.59439,0.55234 28.81633,2.18801 3.50506,-3.46553 6.24806,-9.28245 7.51916,-15.7143 -0.17472,-6.58187 -0.75751,-11.75454 -2.05061,-18.15408 -3.60107,-8.48112 -5.56595,-10.43727 -10.8134,-18.04789 -3.33591,-5.36708 -13.13381,-12.67079 -18.63868,-18.66717 -3.33509,-5.6045 -2.05584,-10.8169 -1.84055,-21.64311 z"
           id="Smoke1"
           inkscape:label="#path3845"
           inkscape:connector-curvature="0"
           sodipodi:nodetypes="cccccccccccc">
          <animate
             repeatCount="indefinite"
             values="m 214.21561,283.00379 c -3.95082,8.75296 -5.87511,15.32733 -5.29178,24.03513 2.20515,8.39141 8.45425,8.45055 12.48457,15.6315 3.01141,5.00475 5.09904,9.48731 5.63635,18.40733 -0.19054,4.86983 -1.80291,11.37577 -3.84796,17.17045 -1.15023,3.95682 -7.74128,13.34467 -11.97343,14.79413 2.61907,3.98158 23.59439,0.55234 28.81633,2.18801 3.50506,-3.46553 6.24806,-9.28245 7.51916,-15.7143 -0.17472,-6.58187 -0.75751,-11.75454 -2.05061,-18.15408 -3.60107,-8.48112 -5.56595,-10.43727 -10.8134,-18.04789 -3.33591,-5.36708 -13.13381,-12.67079 -18.63868,-18.66717 -3.33509,-5.6045 -2.05584,-10.8169 -1.84055,-21.64311 z; m 226.70181,284.9931 c 6.99045,6.5846 8.86168,13.09521 4.07934,20.39559 -3.29744,8.02529 -8.72452,18.34843 -5.30272,25.83848 2.5866,5.23695 14.46959,8.08163 14.26635,17.01551 -0.25788,5.50792 -6.20984,10.35476 -9.66575,13.59625 -4.77933,4.0781 -16.17374,10.45858 -18.85567,11.2034 2.61907,3.98158 23.59439,0.55234 28.81633,2.18801 3.50506,-3.46553 6.24806,-9.28245 9.61376,-13.32048 1.91987,-3.29036 2.98404,-8.81836 2.22535,-15.30301 -2.88634,-8.7502 -9.5114,-11.60345 -14.11055,-19.62249 -2.87999,-5.62491 0.92518,-11.10348 0.14608,-19.20614 0.71619,-6.48232 -1.04587,-19.05785 -11.21252,-22.78512 z; m 214.21561,283.00379 c -3.95082,8.75296 -5.87511,15.32733 -5.29178,24.03513 2.20515,8.39141 8.45425,8.45055 12.48457,15.6315 3.01141,5.00475 5.09904,9.48731 5.63635,18.40733 -0.19054,4.86983 -1.80291,11.37577 -3.84796,17.17045 -1.15023,3.95682 -7.74128,13.34467 -11.97343,14.79413 2.61907,3.98158 23.59439,0.55234 28.81633,2.18801 3.50506,-3.46553 6.24806,-9.28245 7.51916,-15.7143 -0.17472,-6.58187 -0.75751,-11.75454 -2.05061,-18.15408 -3.60107,-8.48112 -5.56595,-10.43727 -10.8134,-18.04789 -3.33591,-5.36708 -13.13381,-12.67079 -18.63868,-18.66717 -3.33509,-5.6045 -2.05584,-10.8169 -1.84055,-21.64311 z"
             attributeName="d"
             begin="0ms"
             dur="3000ms"
             id="animate3594" />
        </path>
        <path
           sodipodi:nodetypes="cccccccccccc"
           inkscape:connector-curvature="0"
           inkscape:label="#path3845"
           id="Smoke2"
           d="m 214.21561,283.00379 c -3.95082,8.75296 -5.87511,15.32733 -5.29178,24.03513 2.20515,8.39141 8.45425,8.45055 12.48457,15.6315 3.01141,5.00475 5.09904,9.48731 5.63635,18.40733 -0.19054,4.86983 -1.80291,11.37577 -3.84796,17.17045 -1.15023,3.95682 -7.74128,13.34467 -11.97343,14.79413 2.61907,3.98158 23.59439,0.55234 28.81633,2.18801 3.50506,-3.46553 6.24806,-9.28245 7.51916,-15.7143 -0.17472,-6.58187 -0.75751,-11.75454 -2.05061,-18.15408 -3.60107,-8.48112 -5.56595,-10.43727 -10.8134,-18.04789 -3.33591,-5.36708 -13.13381,-12.67079 -18.63868,-18.66717 -3.33509,-5.6045 -2.05584,-10.8169 -1.84055,-21.64311 z"
           style="opacity:0.7;color:#000000;fill:url(#linearGradient3611);stroke:none;stroke-width:2;marker:none;visibility:visible;display:none;overflow:visible;enable-background:accumulate"
           sodipodi:insensitive="true" />
        <path
           style="opacity:0.7;color:#000000;fill:url(#linearGradient3613);stroke:none;stroke-width:2;marker:none;visibility:visible;display:none;overflow:visible;enable-background:accumulate"
           d="m 226.70181,284.9931 c 6.99045,6.5846 8.86168,13.09521 4.07934,20.39559 -3.29744,8.02529 -8.72452,18.34843 -5.30272,25.83848 2.5866,5.23695 14.46959,8.08163 14.26635,17.01551 -0.25788,5.50792 -6.20984,10.35476 -9.66575,13.59625 -4.77933,4.0781 -16.17374,10.45858 -18.85567,11.2034 2.61907,3.98158 23.59439,0.55234 28.81633,2.18801 3.50506,-3.46553 6.24806,-9.28245 9.61376,-13.32048 1.91987,-3.29036 2.98404,-8.81836 2.22535,-15.30301 -2.88634,-8.7502 -9.5114,-11.60345 -14.11055,-19.62249 -2.87999,-5.62491 0.92518,-11.10348 0.14608,-19.20614 0.71619,-6.48232 -1.04587,-19.05785 -11.21252,-22.78512 z"
           id="Smoke3"
           inkscape:label="#path3845"
           inkscape:connector-curvature="0"
           sodipodi:nodetypes="cccccccccccc"
           sodipodi:insensitive="true" />
        <use
           x="0"
           y="0"
           xlink:href="#Smoke1"
           id="use3605"
           transform="matrix(-1,0,0,1,459.82414,0)"
           width="1200"
           height="600" />
        <use
           x="0"
           y="0"
           xlink:href="#Smoke1"
           id="use3607"
           transform="matrix(0.76426132,0,0,1.4013915,65.590629,-150.61427)"
           width="1200"
           height="600" />
      </g>
      <g
         id="Lid2"
         transform="matrix(0.49004809,0.8716954,-0.8716954,0.49004809,619.2098,122.58192)">
        <path
           style="color:#000000;fill:#ff0000;fill-opacity:1;fill-rule:nonzero;stroke:#000000;stroke-width:1;stroke-linecap:butt;stroke-linejoin:round;stroke-miterlimit:4;stroke-opacity:1;stroke-dashoffset:4.09999996;marker:none;visibility:visible;display:inline;overflow:visible;enable-background:accumulate"
           d="m 172.3559,346.38548 c 0,-34.98838 -40.10046,-63.35208 -88.209488,-63.35208 -48.10903,0 -88.9095102,28.3637 -88.9095102,63.35208 -9.2551698,37.32535 174.4866182,44.56588 177.1189982,0 z"
           id="path3758-1"
           inkscape:connector-curvature="0"
           sodipodi:nodetypes="cscc" />
        <path
           inkscape:connector-curvature="0"
           id="path2985-4-4"
           d="M 1.4557344,343.03962 C -1.6795538,313.3395 44.753803,282.4373 90.344115,286.57797 135.93442,290.71863 170.25331,319.5675 167.12248,351.4593 166.23626,374.39666 -2.5976466,384.8415 1.4557344,343.03962 z"
           style="color:#000000;fill:url(#radialGradient3192);fill-opacity:1;fill-rule:nonzero;stroke:none;stroke-width:2;marker:none;visibility:visible;display:inline;overflow:visible;enable-background:accumulate"
           sodipodi:nodetypes="cscc" />
        <path
           style="color:#000000;fill:#cccccc;fill-opacity:1;fill-rule:nonzero;stroke:#140606;stroke-width:0.25;stroke-miterlimit:4;stroke-opacity:1;stroke-dasharray:none;marker:none;visibility:visible;display:inline;overflow:visible;enable-background:accumulate"
           d="m 100.84375,296.59375 c -7.436655,0 -13.46875,5.35839 -13.46875,11.96875 0,6.61036 6.032095,11.96875 13.46875,11.96875 7.43665,0 13.46875,-5.35839 13.46875,-11.96875 0,-6.61036 -6.0321,-11.96875 -13.46875,-11.96875 z m -5,5.0625 c 1.635981,0 2.96875,1.29745 2.96875,2.875 0,1.57755 -1.332769,2.84375 -2.96875,2.84375 -1.635981,0 -2.96875,-1.2662 -2.96875,-2.84375 0,-1.57755 1.332769,-2.875 2.96875,-2.875 z m 11.4375,2.125 c 1.63598,0 2.96875,1.2662 2.96875,2.84375 0,1.57755 -1.33277,2.875 -2.96875,2.875 -1.63598,0 -2.96875,-1.29745 -2.96875,-2.875 0,-1.57755 1.33277,-2.84375 2.96875,-2.84375 z m -7.1875,7.625 c 1.63598,0 2.9375,1.2662 2.9375,2.84375 0,1.57755 -1.30152,2.875 -2.9375,2.875 -1.635981,0 -2.96875,-1.29745 -2.96875,-2.875 0,-1.57755 1.332769,-2.84375 2.96875,-2.84375 z"
           id="path3985"
           inkscape:connector-curvature="0" />
        <path
           sodipodi:nodetypes="cccccccccc"
           inkscape:connector-curvature="0"
           id="path3837-4"
           d="m 60.774871,288.26473 -0.94733,-22.96242 47.439999,-0.84594 0.24701,22.36372 c -2.10329,3.17532 -3.97235,1.55743 -5.84475,0.008 l 0.2598,-17.28056 -36.075641,1.0655 0.921488,17.64414 c -2.02728,1.06198 -4.044531,1.7314 -6.000576,0.008 z"
           style="color:#000000;fill:#000000;fill-opacity:1;fill-rule:nonzero;stroke:#000000;stroke-width:1;stroke-linecap:butt;stroke-linejoin:round;stroke-miterlimit:4;stroke-opacity:1;stroke-dasharray:none;stroke-dashoffset:4.09999996;marker:none;visibility:visible;display:inline;overflow:visible;enable-background:accumulate" />
      </g>
    </g>
  </g>
</svg>
